<svg width="56" height="40" viewBox="0 0 56 40" fill="none" xmlns="http://www.w3.org/2000/svg">
<path d="M4 0H24C25.0609 0 26.0783 0.421427 26.8284 1.17157C27.5786 1.92172 28 2.93913 28 4C28 5.06087 27.5786 6.07828 26.8284 6.82843C26.0783 7.57857 25.0609 8 24 8H4C2.93913 8 1.92172 7.57857 1.17157 6.82843C0.421427 6.07828 0 5.06087 0 4C0 2.93913 0.421427 1.92172 1.17157 1.17157C1.92172 0.421427 2.93913 0 4 0ZM32 32H52C53.0609 32 54.0783 32.4214 54.8284 33.1716C55.5786 33.9217 56 34.9391 56 36C56 37.0609 55.5786 38.0783 54.8284 38.8284C54.0783 39.5786 53.0609 40 52 40H32C30.9391 40 29.9217 39.5786 29.1716 38.8284C28.4214 38.0783 28 37.0609 28 36C28 34.9391 28.4214 33.9217 29.1716 33.1716C29.9217 32.4214 30.9391 32 32 32ZM4 16H52C53.0609 16 54.0783 16.4214 54.8284 17.1716C55.5786 17.9217 56 18.9391 56 20C56 21.0609 55.5786 22.0783 54.8284 22.8284C54.0783 23.5786 53.0609 24 52 24H4C2.93913 24 1.92172 23.5786 1.17157 22.8284C0.421427 22.0783 0 21.0609 0 20C0 18.9391 0.421427 17.9217 1.17157 17.1716C1.92172 16.4214 2.93913 16 4 16Z" fill="#545454"/>
</svg>
