<svg width="107" height="107" viewBox="0 0 107 107" fill="none" xmlns="http://www.w3.org/2000/svg">
<path d="M96.4672 25.6631L56.0914 2.42402C55.4227 2.00605 54.5031 1.83887 53.5 1.83887C52.4969 1.83887 51.5773 2.08965 50.9086 2.42402L10.7836 25.7467C9.3625 26.5826 8.35938 28.6725 8.35938 30.2607V76.8225C8.35938 77.742 8.52656 78.8287 9.19531 79.7482L98.4734 27.9201C97.9719 26.917 97.2195 26.1646 96.4672 25.6631Z" fill="#659AD3"/>
<path d="M8.94434 79.665C9.3623 80.3338 9.94746 80.9189 10.5326 81.2533L50.8248 104.576C51.4936 104.994 52.4131 105.161 53.4162 105.161C54.4193 105.161 55.3389 104.91 56.0076 104.576L96.1326 81.2533C97.5537 80.4174 98.5568 78.3275 98.5568 76.7393V30.1775C98.5568 29.4252 98.4732 28.5893 98.0553 27.8369L8.94434 79.665Z" fill="#03599C"/>
<path d="M71.3055 63.6148C67.7945 69.8008 61.107 73.9805 53.5 73.9805C42.2148 73.9805 33.0195 64.7852 33.0195 53.5C33.0195 42.2148 42.2148 33.0195 53.5 33.0195C61.107 33.0195 67.7945 37.1992 71.3055 43.4688L82.1727 37.1992C76.4883 27.2516 65.7883 20.4805 53.5 20.4805C35.2766 20.4805 20.4805 35.2766 20.4805 53.5C20.4805 71.7234 35.2766 86.5195 53.5 86.5195C65.7047 86.5195 76.4047 79.832 82.0891 69.968L71.3055 63.6148Z" fill="white"/>
</svg>
