<svg width="10" height="9" viewBox="0 0 10 9" fill="none" xmlns="http://www.w3.org/2000/svg">
<path fill-rule="evenodd" clip-rule="evenodd" d="M2.27997 0.219846C2.1378 0.0873663 1.94975 0.0152433 1.75545 0.0186715C1.56115 0.0220998 1.37576 0.100812 1.23835 0.238225C1.10094 0.375638 1.02222 0.561023 1.0188 0.755324C1.01537 0.949625 1.08749 1.13767 1.21997 1.27985L3.93997 3.99985L1.21997 6.71985C1.14628 6.78851 1.08718 6.87131 1.04619 6.96331C1.0052 7.05531 0.983156 7.15462 0.981379 7.25532C0.979602 7.35603 0.998127 7.45606 1.03585 7.54944C1.07357 7.64283 1.12971 7.72767 1.20093 7.79888C1.27215 7.8701 1.35698 7.92625 1.45037 7.96397C1.54376 8.00169 1.64379 8.02022 1.74449 8.01844C1.8452 8.01666 1.94451 7.99462 2.03651 7.95363C2.12851 7.91264 2.21131 7.85353 2.27997 7.77985L4.99997 5.05985L7.71997 7.77985C7.78863 7.85353 7.87143 7.91264 7.96343 7.95363C8.05543 7.99462 8.15475 8.01666 8.25545 8.01844C8.35615 8.02022 8.45618 8.00169 8.54957 7.96397C8.64296 7.92625 8.72779 7.8701 8.79901 7.79888C8.87023 7.72767 8.92637 7.64283 8.96409 7.54944C9.00181 7.45606 9.02034 7.35603 9.01856 7.25532C9.01679 7.15462 8.99474 7.05531 8.95375 6.96331C8.91276 6.87131 8.85366 6.78851 8.77997 6.71985L6.05997 3.99985L8.77997 1.27985C8.91245 1.13767 8.98457 0.949625 8.98115 0.755324C8.97772 0.561023 8.899 0.375638 8.76159 0.238225C8.62418 0.100812 8.43879 0.0220998 8.24449 0.0186715C8.05019 0.0152433 7.86215 0.0873663 7.71997 0.219846L4.99997 2.93985L2.27997 0.219846Z" fill="#545454"/>
</svg>
