<svg width="78" height="78" viewBox="0 0 78 78" fill="none" xmlns="http://www.w3.org/2000/svg">
<mask id="mask0_423_351" style="mask-type:alpha" maskUnits="userSpaceOnUse" x="0" y="0" width="78" height="78">
<path fill-rule="evenodd" clip-rule="evenodd" d="M55.3114 77.4673C55.932 77.7093 56.5959 77.821 57.2616 77.7954C57.9273 77.7698 58.5806 77.6075 59.1809 77.3186L75.2398 69.5911C76.0668 69.193 76.7646 68.5695 77.2529 67.7924C77.7413 67.0152 78.0003 66.116 78.0002 65.1982V12.8023C78.0004 11.8843 77.7414 10.985 77.2531 10.2077C76.7647 9.43042 76.0669 8.80683 75.2398 8.40867L59.1809 0.682404C58.2735 0.24579 57.2528 0.102036 56.26 0.271038C55.2673 0.440039 54.3517 0.913438 53.6398 1.62572L22.8969 29.6728L9.50647 19.5078C8.90243 19.0492 8.15688 18.8165 7.3992 18.8501C6.64151 18.8837 5.91951 19.1815 5.35845 19.6919L1.06358 23.5986C0.728878 23.903 0.461402 24.2739 0.27826 24.6876C0.0951191 25.1013 0.000345082 25.5487 9.40605e-07 26.0011C-0.000343201 26.4536 0.0937502 26.9011 0.276262 27.3151C0.458773 27.7291 0.725685 28.1004 1.05992 28.4053L12.6728 38.9999L1.06053 49.5951C0.726476 49.9001 0.459725 50.2714 0.277326 50.6853C0.0949282 51.0992 0.000895943 51.5467 0.00124005 51.999C0.00158415 52.4513 0.0962971 52.8986 0.279325 53.3122C0.462353 53.7259 0.729669 54.0968 1.06419 54.4013L5.35906 58.308C5.91999 58.8185 6.64197 59.1165 7.39969 59.1502C8.1574 59.1839 8.90301 58.9513 9.50708 58.4926L22.8975 48.3282L53.6405 76.3747C54.1158 76.8509 54.6844 77.223 55.3114 77.4673ZM58.5118 21.2933L35.1855 38.9999L58.5124 56.7071L58.5118 21.2933Z" fill="white"/>
</mask>
<g mask="url(#mask0_423_351)">
<path d="M75.2402 8.42188L59.1685 0.682814C58.2607 0.245911 57.2396 0.102001 56.2464 0.271004C55.2533 0.440007 54.3372 0.913564 53.625 1.62613L1.01282 49.5955C0.67851 49.9003 0.411533 50.2716 0.228973 50.6855C0.0464137 51.0995 -0.0477065 51.547 -0.0473623 51.9994C-0.0470182 52.4518 0.0477828 52.8992 0.230972 53.3128C0.414162 53.7265 0.681703 54.0973 1.01647 54.4017L5.31378 58.3084C5.87521 58.8189 6.59758 59.1168 7.35565 59.1505C8.11372 59.1842 8.8597 58.9516 9.46424 58.493L72.8216 10.4285C74.9471 8.81614 78 10.3323 78 13.0001V12.8136C78 11.896 77.741 10.997 77.2527 10.2199C76.7645 9.44294 76.0669 8.82009 75.2402 8.42188Z" fill="#0065A9"/>
<g filter="url(#filter0_d_423_351)">
<path d="M75.2402 69.5791L59.1685 77.317C58.2609 77.754 57.2398 77.8981 56.2466 77.7294C55.2535 77.5606 54.3373 77.0873 53.625 76.3749L1.01282 28.4049C0.67851 28.1001 0.411533 27.7288 0.228973 27.3149C0.0464137 26.9009 -0.0477065 26.4534 -0.0473623 26.001C-0.0470182 25.5486 0.0477828 25.1012 0.230972 24.6876C0.414162 24.2739 0.681703 23.9031 1.01647 23.5988L5.31378 19.692C5.87521 19.1816 6.59758 18.8836 7.35565 18.8499C8.11372 18.8162 8.8597 19.0488 9.46424 19.5074L72.8216 67.5713C74.9471 69.1843 78 67.6681 78 65.0003V65.1868C78 66.1044 77.741 67.0034 77.2527 67.7805C76.7645 68.5575 76.0669 69.1809 75.2402 69.5791Z" fill="#007ACC"/>
</g>
<g filter="url(#filter1_d_423_351)">
<path d="M59.1691 77.3188C58.2611 77.7554 57.2399 77.8991 56.2467 77.73C55.2535 77.5609 54.3373 77.0873 53.625 76.3748C55.4239 78.1737 58.5 76.8995 58.5 74.3554V3.64411C58.5 1.09997 55.4239 -0.174234 53.625 1.62525C54.3373 0.912771 55.2535 0.439236 56.2467 0.270134C57.2399 0.101033 58.2611 0.244722 59.1691 0.681329L75.2377 8.40942C76.0652 8.80732 76.7634 9.43081 77.2521 10.2081C77.7408 10.9854 78 11.8849 78 12.803V65.1983C78 66.1164 77.7408 67.0159 77.2521 67.7932C76.7634 68.5705 76.0652 69.194 75.2377 69.5919L59.1691 77.3188Z" fill="#1F9CF0"/>
</g>
<path opacity="0.25" fill-rule="evenodd" clip-rule="evenodd" d="M55.2643 77.4678C55.8849 77.7097 56.5486 77.8213 57.2142 77.7958C57.8798 77.7702 58.533 77.6079 59.1332 77.3191L75.1921 69.5916C76.0192 69.1935 76.7171 68.5699 77.2054 67.7926C77.6938 67.0153 77.9528 66.116 77.9526 65.198V12.8028C77.9528 11.8848 77.6938 10.9854 77.2054 10.2082C76.7171 9.43091 76.0192 8.80732 75.1921 8.40916L59.1332 0.682892C58.2258 0.246278 57.2051 0.102524 56.2124 0.271526C55.2197 0.440527 54.304 0.913926 53.5922 1.6262L22.8492 29.6733L9.45881 19.5089C8.85477 19.0503 8.10922 18.8176 7.35154 18.8512C6.59386 18.8848 5.87185 19.1826 5.31079 19.693L1.01592 23.5997C0.681302 23.9041 0.413901 24.2751 0.230814 24.6888C0.0477265 25.1025 -0.0470182 25.5498 -0.0473623 26.0022C-0.0477065 26.4546 0.0463576 26.9021 0.228815 27.3161C0.411273 27.7301 0.67811 28.1014 1.01226 28.4064L12.6251 39.0004L1.01287 49.595C0.678635 49.8999 0.411724 50.2712 0.229212 50.6852C0.0467008 51.0992 -0.0473925 51.5467 -0.0470484 51.9992C-0.0467043 52.4516 0.0480698 52.899 0.231211 53.3127C0.414352 53.7264 0.681828 54.0973 1.01653 54.4017L5.3114 58.3084C5.87238 58.8189 6.59435 59.1168 7.35204 59.1505C8.10972 59.1842 8.85531 58.9516 9.45942 58.4931L22.8504 48.3281L53.5934 76.3752C54.0686 76.8513 54.6376 77.2234 55.2643 77.4678ZM58.4647 21.2932L35.1379 39.0004L58.4647 56.707V21.2932Z" fill="url(#paint0_linear_423_351)"/>
</g>
<defs>
<filter id="filter0_d_423_351" x="-8.38136" y="10.5127" width="94.7154" height="75.6192" filterUnits="userSpaceOnUse" color-interpolation-filters="sRGB">
<feFlood flood-opacity="0" result="BackgroundImageFix"/>
<feColorMatrix in="SourceAlpha" type="matrix" values="0 0 0 0 0 0 0 0 0 0 0 0 0 0 0 0 0 0 127 0" result="hardAlpha"/>
<feOffset/>
<feGaussianBlur stdDeviation="4.167"/>
<feColorMatrix type="matrix" values="0 0 0 0 0 0 0 0 0 0 0 0 0 0 0 0 0 0 0.25 0"/>
<feBlend mode="overlay" in2="BackgroundImageFix" result="effect1_dropShadow_423_351"/>
<feBlend mode="normal" in="SourceGraphic" in2="effect1_dropShadow_423_351" result="shape"/>
</filter>
<filter id="filter1_d_423_351" x="45.291" y="-8.13283" width="41.043" height="94.2657" filterUnits="userSpaceOnUse" color-interpolation-filters="sRGB">
<feFlood flood-opacity="0" result="BackgroundImageFix"/>
<feColorMatrix in="SourceAlpha" type="matrix" values="0 0 0 0 0 0 0 0 0 0 0 0 0 0 0 0 0 0 127 0" result="hardAlpha"/>
<feOffset/>
<feGaussianBlur stdDeviation="4.167"/>
<feColorMatrix type="matrix" values="0 0 0 0 0 0 0 0 0 0 0 0 0 0 0 0 0 0 0.25 0"/>
<feBlend mode="overlay" in2="BackgroundImageFix" result="effect1_dropShadow_423_351"/>
<feBlend mode="normal" in="SourceGraphic" in2="effect1_dropShadow_423_351" result="shape"/>
</filter>
<linearGradient id="paint0_linear_423_351" x1="38.9526" y1="0.201486" x2="38.9526" y2="77.7993" gradientUnits="userSpaceOnUse">
<stop stop-color="white"/>
<stop offset="1" stop-color="white" stop-opacity="0"/>
</linearGradient>
</defs>
</svg>
