<svg width="256" height="256" viewBox="0 0 256 256" fill="none" xmlns="http://www.w3.org/2000/svg">
<g clip-path="url(#clip0_389_66)">
<path d="M196 0H60C26.8629 0 0 26.8629 0 60V196C0 229.137 26.8629 256 60 256H196C229.137 256 256 229.137 256 196V60C256 26.8629 229.137 0 196 0Z" fill="#330000"/>
<path d="M123.733 152.333H84.053L75.946 177.4C75.733 178.36 74.88 179 73.92 178.893H53.866C52.693 178.893 52.373 178.253 52.693 176.973L87.04 78.0931C87.36 77.0271 87.68 75.8531 88.106 74.5731C88.533 72.3331 88.746 69.9871 88.746 67.6401C88.64 67.1071 89.066 66.5731 89.6 66.4671H117.226C118.08 66.4671 118.506 66.7871 118.613 67.3201L157.546 177.187C157.866 178.36 157.546 178.893 156.48 178.893H134.186C133.44 179 132.693 178.467 132.48 177.72L123.733 152.333ZM90.24 130.68H117.333C116.693 128.44 115.84 125.773 114.88 123C113.92 120.12 112.96 117.027 112 113.827C110.933 110.52 109.973 107.32 108.906 104.013C107.84 100.707 106.88 97.6131 106.026 94.5201C105.173 91.5341 104.426 88.7601 103.68 86.2001H103.466C102.506 90.7871 101.333 95.3741 99.84 99.9601C98.24 105.08 96.64 110.413 94.933 115.747C93.5554 120.782 91.99 125.763 90.24 130.68ZM181.333 85.1331C177.813 85.2401 174.4 83.8531 171.84 81.4001C169.387 78.7331 168.107 75.2131 168.213 71.5871C168.107 67.9601 169.493 64.5471 172.053 62.0931C174.613 59.6401 178.027 58.3601 181.547 58.3601C185.707 58.3601 188.907 59.6401 191.253 62.0931C193.617 64.6792 194.88 68.085 194.773 71.5871C194.88 75.2131 193.6 78.7331 191.04 81.4001C188.587 83.9601 184.96 85.3471 181.333 85.1331ZM169.387 177.72V95.5871C169.387 94.5201 169.813 94.0931 170.773 94.0931H191.893C192.853 94.0931 193.28 94.6271 193.28 95.5871V177.72C193.28 178.893 192.853 179.427 191.893 179.427H170.987C169.92 179.427 169.387 178.787 169.387 177.72Z" fill="#FF9A00"/>
</g>
<defs>
<clipPath id="clip0_389_66">
<rect width="256" height="256" fill="white"/>
</clipPath>
</defs>
</svg>
