<svg width="240" height="240" viewBox="0 0 60 60" fill="none" xmlns="http://www.w3.org/2000/svg">
<path d="M3.75 32.9062L18.6933 26.8687C20.2102 24.8638 21.9187 23.0113 23.7947 21.3375C25.0303 20.6817 27.3558 21.037 31.6134 15.7509C35.7366 10.5947 37.0495 6.18701 38.9813 6.18701C42.0375 6.18701 44.2875 12.7879 47.7009 22.7822C50.1331 30.4156 52.9872 37.908 56.25 45.225C52.6866 41.9053 49.6509 38.3259 46.1812 38.4187C42.9562 38.4942 39.375 42.3192 35.4562 47.2322C32.3437 51.1687 28.2188 53.8697 26.6077 53.8125C26.6077 53.8125 22.4438 42.037 18.9577 40.125C18.234 39.8289 17.4506 39.7084 16.6715 39.7734C15.8923 39.8383 15.1396 40.0868 14.475 40.4986L3.75 32.8875V32.9062Z" fill="#4499DD"/>
<path d="M37.1251 7.53662C35.8688 9.22506 34.3501 12.3193 31.6126 15.751C27.3554 21.0371 25.0501 20.6822 23.7938 21.3376C21.9094 23.0026 20.2002 24.856 18.6929 26.8688L24.8804 31.3876C30.1313 24.2251 32.9438 16.4635 35.1376 11.4371C35.6873 10.0828 36.3519 8.77804 37.1241 7.53709L37.1251 7.53662Z" fill="url(#paint0_linear_424_354)"/>
<path d="M38.9999 6.18746C34.9124 6.18746 32.1187 27.7129 17.0249 39.7321C21.2624 39.0384 24.9374 49.5557 26.6249 53.8129C34.1249 52.5365 40.1258 38.1942 46.1811 38.4192C49.6508 38.549 52.6865 41.9053 56.2499 45.2254C48.1124 28.125 44.3061 6.18652 38.9999 6.18652V6.18746Z" fill="url(#paint1_linear_424_354)"/>
<defs>
<linearGradient id="paint0_linear_424_354" x1="31.5057" y1="28.8169" x2="28.1494" y2="17.9794" gradientUnits="userSpaceOnUse">
<stop stop-color="#551122"/>
<stop offset="0.23" stop-color="#552233"/>
<stop offset="0.36" stop-color="#553344"/>
<stop offset="0.51" stop-color="#664455"/>
<stop offset="0.66" stop-color="#556688"/>
<stop offset="0.84" stop-color="#2299DD"/>
</linearGradient>
<linearGradient id="paint1_linear_424_354" x1="55.7062" y1="35.5931" x2="21.9562" y2="27.3056" gradientUnits="userSpaceOnUse">
<stop offset="0.081" stop-color="#CC3333"/>
<stop offset="0.189" stop-color="#DE5239"/>
<stop offset="0.313" stop-color="#F06E3E"/>
<stop offset="0.421" stop-color="#FA8042"/>
<stop offset="0.5" stop-color="#FE8643"/>
<stop offset="0.58" stop-color="#FA7F42"/>
<stop offset="0.696" stop-color="#EF6C3E"/>
<stop offset="0.833" stop-color="#DC4C37"/>
<stop offset="0.916" stop-color="#CF3633"/>
</linearGradient>
</defs>
</svg>
