<svg width="43" height="55" viewBox="0 0 43 55" fill="none" xmlns="http://www.w3.org/2000/svg">
<path d="M43.0039 10.1394V44.8061C43.0039 46.0158 42.6519 47.0991 41.9477 48.0561C41.2435 48.995 40.2956 49.6269 39.1039 49.9519L23.5852 54.4207C23.3685 54.4748 23.1248 54.529 22.8539 54.5832H22.2581C21.6623 54.5832 21.1206 54.5019 20.6331 54.3394C20.1456 54.1769 19.6491 53.9603 19.1435 53.6894L8.98727 47.9478C8.60811 47.7311 8.31019 47.4512 8.09352 47.1082C7.87686 46.7651 7.76852 46.3769 7.76852 45.9436C7.76852 45.2936 8.00324 44.7429 8.47269 44.2915C8.92408 43.8401 9.47477 43.6144 10.1248 43.6144H23.2873V11.629L13.3748 15.1498C12.5984 15.4387 11.9664 15.9443 11.4789 16.6665C10.9914 17.3526 10.7477 18.12 10.7477 18.9686V37.1957C10.7477 37.954 10.5581 38.6401 10.1789 39.254C9.81783 39.8679 9.30324 40.3554 8.63519 40.7165L3.97686 43.2623C3.54352 43.4971 3.11019 43.6144 2.67686 43.6144C1.93658 43.6144 1.30463 43.3526 0.781022 42.829C0.257411 42.3054 -0.00439453 41.6644 -0.00439453 40.9061V15.2311C-0.00439453 14.2922 0.239355 13.4165 0.726855 12.604C1.23241 11.7012 1.89144 11.0151 2.70394 10.5457L19.3873 1.0665C19.7664 0.849837 20.1727 0.687337 20.606 0.579004C21.0394 0.47067 21.4727 0.416504 21.906 0.416504C22.213 0.416504 22.4928 0.443587 22.7456 0.497754C22.9984 0.533865 23.2782 0.597059 23.5852 0.687337L39.1039 4.99359C39.6998 5.15609 40.2324 5.39984 40.7019 5.72484C41.1713 6.04984 41.5776 6.43803 41.9206 6.88942C42.2817 7.35887 42.5526 7.86442 42.7331 8.40609C42.9137 8.96581 43.0039 9.54359 43.0039 10.1394ZM39.4289 44.8061V10.1394C39.4289 9.72414 39.3206 9.36303 39.1039 9.05609C38.8331 8.71303 38.4991 8.50539 38.1019 8.43317L30.4644 6.32067C29.9046 6.15817 29.3088 5.99567 28.6769 5.83317C28.081 5.63456 27.4942 5.46303 26.9164 5.31859V49.7353L38.1019 46.4582C38.4991 46.386 38.8331 46.1964 39.1039 45.8894C39.3206 45.5825 39.4289 45.2214 39.4289 44.8061Z" fill="url(#paint0_linear_430_359)"/>
<defs>
<linearGradient id="paint0_linear_430_359" x1="43" y1="-1.63283e-06" x2="-4.03456e-07" y2="55" gradientUnits="userSpaceOnUse">
<stop stop-color="#DC6D3D"/>
<stop offset="0.344165" stop-color="#E44C4C"/>
<stop offset="0.630208" stop-color="#EE206C"/>
<stop offset="1" stop-color="#AD5781"/>
</linearGradient>
</defs>
</svg>
