<svg width="259" height="93" viewBox="0 0 259 93" fill="none" xmlns="http://www.w3.org/2000/svg">
<path d="M11.472 51H4.32V16.728H23.952V22.68H11.472V31.512H23.088V37.464H11.472V51ZM68.8785 51H61.7265V14.52H68.8785V51ZM84.4635 24.792V51H77.3115V24.792H84.4635ZM80.9115 14.52C81.9675 14.52 82.8795 14.776 83.6475 15.288C84.4155 15.768 84.7995 16.68 84.7995 18.024C84.7995 19.336 84.4155 20.248 83.6475 20.76C82.8795 21.272 81.9675 21.528 80.9115 21.528C79.8235 21.528 78.8955 21.272 78.1275 20.76C77.3915 20.248 77.0235 19.336 77.0235 18.024C77.0235 16.68 77.3915 15.768 78.1275 15.288C78.8955 14.776 79.8235 14.52 80.9115 14.52ZM116.704 37.848C116.704 40.024 116.4 41.96 115.792 43.656C115.216 45.352 114.368 46.792 113.248 47.976C112.16 49.128 110.832 50.008 109.264 50.616C107.696 51.192 105.92 51.48 103.936 51.48C102.112 51.48 100.416 51.192 98.8485 50.616C97.3125 50.008 95.9845 49.128 94.8645 47.976C93.7445 46.792 92.8645 45.352 92.2245 43.656C91.6165 41.96 91.3125 40.024 91.3125 37.848C91.3125 34.936 91.8245 32.488 92.8485 30.504C93.8725 28.488 95.3445 26.952 97.2645 25.896C99.1845 24.84 101.456 24.312 104.08 24.312C106.544 24.312 108.72 24.84 110.608 25.896C112.496 26.952 113.984 28.488 115.072 30.504C116.16 32.488 116.704 34.936 116.704 37.848ZM98.6085 37.848C98.6085 39.576 98.7845 41.032 99.1365 42.216C99.5205 43.368 100.112 44.248 100.912 44.856C101.712 45.432 102.752 45.72 104.032 45.72C105.312 45.72 106.336 45.432 107.104 44.856C107.904 44.248 108.48 43.368 108.832 42.216C109.216 41.032 109.408 39.576 109.408 37.848C109.408 36.12 109.216 34.68 108.832 33.528C108.48 32.376 107.904 31.512 107.104 30.936C106.304 30.36 105.264 30.072 103.984 30.072C102.096 30.072 100.72 30.728 99.8565 32.04C99.0245 33.32 98.6085 35.256 98.6085 37.848Z" fill="#262626"/>
<path d="M54.8557 37.848C54.8557 40.024 54.5517 41.96 53.9437 43.656C53.3677 45.352 52.5197 46.792 51.3998 47.976C50.3118 49.128 48.9838 50.008 47.4158 50.616C45.8477 51.192 44.0717 51.48 42.0878 51.48C40.2638 51.48 38.5677 51.192 36.9997 50.616C35.4637 50.008 34.1357 49.128 33.0157 47.976C31.8957 46.792 31.0157 45.352 30.3757 43.656C29.7677 41.96 29.4637 40.024 29.4637 37.848C29.4637 34.936 29.9757 32.488 30.9997 30.504C32.0237 28.488 33.4957 26.952 35.4157 25.896C37.3357 24.84 39.6077 24.312 42.2318 24.312C44.6957 24.312 46.8717 24.84 48.7598 25.896C50.6478 26.952 52.1358 28.488 53.2238 30.504C54.3117 32.488 54.8557 34.936 54.8557 37.848ZM36.7597 37.848C36.7597 39.576 36.9357 41.032 37.2877 42.216C37.6717 43.368 38.2637 44.248 39.0637 44.856C39.8637 45.432 40.9037 45.72 42.1837 45.72C43.4637 45.72 44.4878 45.432 45.2557 44.856C46.0557 44.248 46.6318 43.368 46.9838 42.216C47.3678 41.032 47.5598 39.576 47.5598 37.848C47.5598 36.12 47.3678 34.68 46.9838 33.528C46.6318 32.376 46.0557 31.512 45.2557 30.936C44.4557 30.36 43.4157 30.072 42.1357 30.072C40.2477 30.072 38.8717 30.728 38.0077 32.04C37.1757 33.32 36.7597 35.256 36.7597 37.848Z" fill="#0057BE"/>
<path d="M4.38 87H1.86V72.72H9.96V74.86H4.38V79.06H9.58V81.2H4.38V87ZM22.1617 81.56C22.1617 82.4667 22.0417 83.2667 21.8017 83.96C21.5617 84.6533 21.2151 85.2467 20.7617 85.74C20.3217 86.22 19.7751 86.5867 19.1217 86.84C18.4817 87.08 17.7684 87.2 16.9817 87.2C16.2351 87.2 15.5484 87.08 14.9217 86.84C14.2951 86.5867 13.7484 86.22 13.2817 85.74C12.8284 85.2467 12.4751 84.6533 12.2217 83.96C11.9684 83.2667 11.8417 82.4667 11.8417 81.56C11.8417 80.36 12.0484 79.3467 12.4617 78.52C12.8751 77.68 13.4684 77.0467 14.2417 76.62C15.0284 76.18 15.9551 75.96 17.0217 75.96C18.0351 75.96 18.9217 76.18 19.6817 76.62C20.4551 77.0467 21.0617 77.68 21.5017 78.52C21.9417 79.3467 22.1617 80.36 22.1617 81.56ZM14.4217 81.56C14.4217 82.32 14.5084 82.9733 14.6817 83.52C14.8684 84.0533 15.1484 84.46 15.5217 84.74C15.9084 85.02 16.4017 85.16 17.0017 85.16C17.6151 85.16 18.1084 85.02 18.4817 84.74C18.8684 84.46 19.1484 84.0533 19.3217 83.52C19.4951 82.9733 19.5817 82.32 19.5817 81.56C19.5817 80.7867 19.4884 80.14 19.3017 79.62C19.1284 79.0867 18.8484 78.6867 18.4617 78.42C18.0884 78.14 17.6017 78 17.0017 78C16.0951 78 15.4351 78.3067 15.0217 78.92C14.6217 79.5333 14.4217 80.4133 14.4217 81.56ZM27.3869 87H24.8669V71.8H27.3869V87ZM33.2291 76.16V87H30.7091V76.16H33.2291ZM31.9691 71.98C32.3424 71.98 32.6691 72.08 32.9491 72.28C33.2291 72.4667 33.3691 72.8067 33.3691 73.3C33.3691 73.78 33.2291 74.1267 32.9491 74.34C32.6691 74.54 32.3424 74.64 31.9691 74.64C31.5824 74.64 31.2491 74.54 30.9691 74.34C30.7024 74.1267 30.5691 73.78 30.5691 73.3C30.5691 72.8067 30.7024 72.4667 30.9691 72.28C31.2491 72.08 31.5824 71.98 31.9691 71.98ZM46.2313 81.56C46.2313 82.4667 46.1113 83.2667 45.8713 83.96C45.6313 84.6533 45.2846 85.2467 44.8313 85.74C44.3913 86.22 43.8446 86.5867 43.1913 86.84C42.5513 87.08 41.8379 87.2 41.0513 87.2C40.3046 87.2 39.6179 87.08 38.9913 86.84C38.3646 86.5867 37.8179 86.22 37.3513 85.74C36.8979 85.2467 36.5446 84.6533 36.2913 83.96C36.0379 83.2667 35.9113 82.4667 35.9113 81.56C35.9113 80.36 36.1179 79.3467 36.5313 78.52C36.9446 77.68 37.5379 77.0467 38.3113 76.62C39.0979 76.18 40.0246 75.96 41.0913 75.96C42.1046 75.96 42.9913 76.18 43.7513 76.62C44.5246 77.0467 45.1313 77.68 45.5713 78.52C46.0113 79.3467 46.2313 80.36 46.2313 81.56ZM38.4913 81.56C38.4913 82.32 38.5779 82.9733 38.7513 83.52C38.9379 84.0533 39.2179 84.46 39.5913 84.74C39.9779 85.02 40.4713 85.16 41.0713 85.16C41.6846 85.16 42.1779 85.02 42.5513 84.74C42.9379 84.46 43.2179 84.0533 43.3913 83.52C43.5646 82.9733 43.6513 82.32 43.6513 81.56C43.6513 80.7867 43.5579 80.14 43.3713 79.62C43.1979 79.0867 42.9179 78.6867 42.5313 78.42C42.1579 78.14 41.6713 78 41.0713 78C40.1646 78 39.5046 78.3067 39.0913 78.92C38.6913 79.5333 38.4913 80.4133 38.4913 81.56ZM63.9117 81.56C63.9117 82.4667 63.7917 83.2667 63.5517 83.96C63.3117 84.6533 62.9651 85.2467 62.5117 85.74C62.0717 86.22 61.5251 86.5867 60.8717 86.84C60.2317 87.08 59.5184 87.2 58.7317 87.2C57.9851 87.2 57.2984 87.08 56.6717 86.84C56.0451 86.5867 55.4984 86.22 55.0317 85.74C54.5784 85.2467 54.2251 84.6533 53.9717 83.96C53.7184 83.2667 53.5917 82.4667 53.5917 81.56C53.5917 80.36 53.7984 79.3467 54.2117 78.52C54.6251 77.68 55.2184 77.0467 55.9917 76.62C56.7784 76.18 57.7051 75.96 58.7717 75.96C59.7851 75.96 60.6717 76.18 61.4317 76.62C62.2051 77.0467 62.8117 77.68 63.2517 78.52C63.6917 79.3467 63.9117 80.36 63.9117 81.56ZM56.1717 81.56C56.1717 82.32 56.2584 82.9733 56.4317 83.52C56.6184 84.0533 56.8984 84.46 57.2717 84.74C57.6584 85.02 58.1517 85.16 58.7517 85.16C59.3651 85.16 59.8584 85.02 60.2317 84.74C60.6184 84.46 60.8984 84.0533 61.0717 83.52C61.2451 82.9733 61.3317 82.32 61.3317 81.56C61.3317 80.7867 61.2384 80.14 61.0517 79.62C60.8784 79.0867 60.5984 78.6867 60.2117 78.42C59.8384 78.14 59.3517 78 58.7517 78C57.8451 78 57.1851 78.3067 56.7717 78.92C56.3717 79.5333 56.1717 80.4133 56.1717 81.56ZM72.2369 78.06H69.6169V87H67.0969V78.06H65.3569V76.86L67.0969 76.14V75.4C67.0969 74.4667 67.2435 73.7333 67.5369 73.2C67.8302 72.6667 68.2569 72.2867 68.8169 72.06C69.3769 71.82 70.0369 71.7 70.7969 71.7C71.3302 71.7 71.8102 71.7467 72.2369 71.84C72.6635 71.92 73.0169 72.0133 73.2969 72.12L72.6569 74C72.4302 73.9333 72.1769 73.8733 71.8969 73.82C71.6302 73.7533 71.3369 73.72 71.0169 73.72C70.5369 73.72 70.1835 73.8733 69.9569 74.18C69.7302 74.4867 69.6169 74.9133 69.6169 75.46V76.16H72.2369V78.06ZM91.8141 87H88.6341L81.8741 75.8H81.7941C81.8074 76.0933 81.8207 76.4067 81.8341 76.74C81.8607 77.06 81.8807 77.3933 81.8941 77.74C81.9074 78.0733 81.9207 78.4133 81.9341 78.76C81.9474 79.1067 81.9607 79.4533 81.9741 79.8V87H79.6741V72.72H82.8341L89.5741 83.84H89.6341C89.6207 83.5733 89.6074 83.2867 89.5941 82.98C89.5807 82.66 89.5674 82.3333 89.5541 82C89.5541 81.6667 89.5474 81.3267 89.5341 80.98C89.5207 80.6333 89.5074 80.3 89.4941 79.98V72.72H91.8141V87ZM104.453 87L103.153 83.22H97.7734L96.4934 87H93.7734L99.0134 72.66H101.933L107.173 87H104.453ZM101.253 77.34C101.2 77.1533 101.12 76.9 101.013 76.58C100.907 76.26 100.8 75.9333 100.693 75.6C100.6 75.2533 100.527 74.9667 100.473 74.74C100.407 75.0067 100.32 75.3133 100.213 75.66C100.12 76.0067 100.027 76.3333 99.9334 76.64C99.8534 76.9467 99.7868 77.18 99.7334 77.34L98.4734 81.02H102.493L101.253 77.34ZM120.231 87H117.291L113.051 80.68L111.711 81.74V87H109.151V72.72H111.711V79.44C111.978 79.1067 112.251 78.7667 112.531 78.42C112.811 78.0733 113.091 77.7267 113.371 77.38L117.231 72.72H120.131L114.891 79L120.231 87ZM131.021 87L129.721 83.22H124.341L123.061 87H120.341L125.581 72.66H128.501L133.741 87H131.021ZM127.821 77.34C127.767 77.1533 127.687 76.9 127.581 76.58C127.474 76.26 127.367 75.9333 127.261 75.6C127.167 75.2533 127.094 74.9667 127.041 74.74C126.974 75.0067 126.887 75.3133 126.781 75.66C126.687 76.0067 126.594 76.3333 126.501 76.64C126.421 76.9467 126.354 77.18 126.301 77.34L125.041 81.02H129.061L127.821 77.34ZM139.432 87H136.872V74.88H132.772V72.72H143.532V74.88H139.432V87ZM154.119 83.1C154.119 83.94 153.912 84.6667 153.499 85.28C153.085 85.8933 152.485 86.3667 151.699 86.7C150.925 87.0333 149.999 87.2 148.919 87.2C148.399 87.2 147.899 87.1667 147.419 87.1C146.952 87.0467 146.505 86.96 146.079 86.84C145.665 86.72 145.279 86.5733 144.919 86.4V84C145.519 84.2667 146.179 84.5133 146.899 84.74C147.619 84.9533 148.352 85.06 149.099 85.06C149.672 85.06 150.139 84.9867 150.499 84.84C150.872 84.68 151.145 84.4667 151.319 84.2C151.492 83.92 151.579 83.6 151.579 83.24C151.579 82.84 151.465 82.5 151.239 82.22C151.012 81.94 150.679 81.68 150.239 81.44C149.799 81.2 149.252 80.9467 148.599 80.68C148.159 80.4933 147.725 80.2867 147.299 80.06C146.885 79.82 146.512 79.5333 146.179 79.2C145.845 78.8667 145.579 78.4733 145.379 78.02C145.179 77.5667 145.079 77.0333 145.079 76.42C145.079 75.6067 145.272 74.9067 145.659 74.32C146.059 73.7333 146.612 73.2867 147.319 72.98C148.039 72.6733 148.872 72.52 149.819 72.52C150.579 72.52 151.292 72.6 151.959 72.76C152.625 72.92 153.285 73.1467 153.939 73.44L153.119 75.5C152.532 75.2467 151.965 75.0467 151.419 74.9C150.872 74.7533 150.312 74.68 149.739 74.68C149.285 74.68 148.899 74.7533 148.579 74.9C148.259 75.0333 148.019 75.2267 147.859 75.48C147.699 75.7333 147.619 76.0267 147.619 76.36C147.619 76.7467 147.719 77.0733 147.919 77.34C148.119 77.6067 148.425 77.86 148.839 78.1C149.265 78.3267 149.812 78.5867 150.479 78.88C151.252 79.2133 151.905 79.56 152.439 79.92C152.972 80.28 153.385 80.7133 153.679 81.22C153.972 81.7267 154.119 82.3533 154.119 83.1ZM168.235 81.96C168.235 82.9467 168.021 83.84 167.595 84.64C167.181 85.4267 166.548 86.0533 165.695 86.52C164.841 86.9733 163.761 87.2 162.455 87.2C160.601 87.2 159.195 86.72 158.235 85.76C157.275 84.7867 156.795 83.5067 156.795 81.92V72.72H159.355V81.66C159.355 82.82 159.621 83.6733 160.155 84.22C160.688 84.7533 161.481 85.02 162.535 85.02C163.281 85.02 163.881 84.8933 164.335 84.64C164.801 84.3867 165.141 84.0067 165.355 83.5C165.581 82.98 165.695 82.36 165.695 81.64V72.72H168.235V81.96ZM170.256 91.04C169.883 91.04 169.563 91.0133 169.296 90.96C169.029 90.92 168.789 90.8733 168.576 90.82V88.68C168.789 88.7333 169.016 88.78 169.256 88.82C169.496 88.86 169.749 88.88 170.016 88.88C170.349 88.88 170.663 88.8133 170.956 88.68C171.249 88.5467 171.483 88.3 171.656 87.94C171.829 87.58 171.916 87.0667 171.916 86.4V72.72H174.476V86.34C174.476 87.46 174.296 88.36 173.936 89.04C173.589 89.7333 173.096 90.24 172.456 90.56C171.829 90.88 171.096 91.04 170.256 91.04ZM183.068 87H177.068V85.54L178.788 84.9V74.84L177.068 74.18V72.72H183.068V74.18L181.348 74.84V84.9L183.068 85.54V87ZM197.166 87L193.246 75.3H193.166C193.179 75.5667 193.199 75.9467 193.226 76.44C193.252 76.92 193.272 77.4467 193.286 78.02C193.312 78.58 193.326 79.1067 193.326 79.6V87H191.026V72.72H194.586L198.346 83.94H198.426L202.346 72.72H205.906V87H203.466V79.48C203.466 79.0267 203.472 78.5333 203.486 78C203.512 77.4533 203.532 76.94 203.546 76.46C203.572 75.9667 203.592 75.5867 203.606 75.32H203.526L199.446 87H197.166ZM219.14 81.56C219.14 82.4667 219.02 83.2667 218.78 83.96C218.54 84.6533 218.193 85.2467 217.74 85.74C217.3 86.22 216.753 86.5867 216.1 86.84C215.46 87.08 214.747 87.2 213.96 87.2C213.213 87.2 212.527 87.08 211.9 86.84C211.273 86.5867 210.727 86.22 210.26 85.74C209.807 85.2467 209.453 84.6533 209.2 83.96C208.947 83.2667 208.82 82.4667 208.82 81.56C208.82 80.36 209.027 79.3467 209.44 78.52C209.853 77.68 210.447 77.0467 211.22 76.62C212.007 76.18 212.933 75.96 214 75.96C215.013 75.96 215.9 76.18 216.66 76.62C217.433 77.0467 218.04 77.68 218.48 78.52C218.92 79.3467 219.14 80.36 219.14 81.56ZM211.4 81.56C211.4 82.32 211.487 82.9733 211.66 83.52C211.847 84.0533 212.127 84.46 212.5 84.74C212.887 85.02 213.38 85.16 213.98 85.16C214.593 85.16 215.087 85.02 215.46 84.74C215.847 84.46 216.127 84.0533 216.3 83.52C216.473 82.9733 216.56 82.32 216.56 81.56C216.56 80.7867 216.467 80.14 216.28 79.62C216.107 79.0867 215.827 78.6867 215.44 78.42C215.067 78.14 214.58 78 213.98 78C213.073 78 212.413 78.3067 212 78.92C211.6 79.5333 211.4 80.4133 211.4 81.56ZM226.045 85.18C226.365 85.18 226.672 85.1533 226.965 85.1C227.258 85.0333 227.532 84.96 227.785 84.88V86.76C227.518 86.88 227.172 86.98 226.745 87.06C226.318 87.1533 225.872 87.2 225.405 87.2C224.792 87.2 224.232 87.1 223.725 86.9C223.232 86.6867 222.832 86.3267 222.525 85.82C222.232 85.3133 222.085 84.6067 222.085 83.7V78.06H220.625V76.96L222.225 76.08L223.025 73.78H224.605V76.16H227.685V78.06H224.605V83.68C224.605 84.1867 224.738 84.5667 225.005 84.82C225.272 85.06 225.618 85.18 226.045 85.18ZM239.75 81.56C239.75 82.4667 239.63 83.2667 239.39 83.96C239.15 84.6533 238.803 85.2467 238.35 85.74C237.91 86.22 237.363 86.5867 236.71 86.84C236.07 87.08 235.357 87.2 234.57 87.2C233.823 87.2 233.137 87.08 232.51 86.84C231.883 86.5867 231.337 86.22 230.87 85.74C230.417 85.2467 230.063 84.6533 229.81 83.96C229.557 83.2667 229.43 82.4667 229.43 81.56C229.43 80.36 229.637 79.3467 230.05 78.52C230.463 77.68 231.057 77.0467 231.83 76.62C232.617 76.18 233.543 75.96 234.61 75.96C235.623 75.96 236.51 76.18 237.27 76.62C238.043 77.0467 238.65 77.68 239.09 78.52C239.53 79.3467 239.75 80.36 239.75 81.56ZM232.01 81.56C232.01 82.32 232.097 82.9733 232.27 83.52C232.457 84.0533 232.737 84.46 233.11 84.74C233.497 85.02 233.99 85.16 234.59 85.16C235.203 85.16 235.697 85.02 236.07 84.74C236.457 84.46 236.737 84.0533 236.91 83.52C237.083 82.9733 237.17 82.32 237.17 81.56C237.17 80.7867 237.077 80.14 236.89 79.62C236.717 79.0867 236.437 78.6867 236.05 78.42C235.677 78.14 235.19 78 234.59 78C233.683 78 233.023 78.3067 232.61 78.92C232.21 79.5333 232.01 80.4133 232.01 81.56ZM244.955 79.02C244.955 79.3667 244.942 79.7333 244.915 80.12C244.888 80.4933 244.862 80.86 244.835 81.22H244.895C245.002 81.06 245.128 80.8867 245.275 80.7C245.422 80.5 245.568 80.3067 245.715 80.12C245.875 79.92 246.028 79.74 246.175 79.58L249.375 76.16H252.235L247.895 80.84L252.515 87H249.575L246.215 82.36L244.955 83.4V87H242.455V71.8H244.955V79.02ZM256.833 76.16V87H254.313V76.16H256.833ZM255.573 71.98C255.946 71.98 256.273 72.08 256.553 72.28C256.833 72.4667 256.973 72.8067 256.973 73.3C256.973 73.78 256.833 74.1267 256.553 74.34C256.273 74.54 255.946 74.64 255.573 74.64C255.186 74.64 254.853 74.54 254.573 74.34C254.306 74.1267 254.173 73.78 254.173 73.3C254.173 72.8067 254.306 72.4667 254.573 72.28C254.853 72.08 255.186 71.98 255.573 71.98Z" fill="#9C9C9C"/>
</svg>
