<svg width="354" height="179" viewBox="0 0 354 179" fill="none" xmlns="http://www.w3.org/2000/svg">
<path d="M17.52 51H10.272V22.776H0.96V16.728H26.832V22.776H17.52V51ZM54.1583 24.792V51H48.6863L47.7263 47.64H47.3422C46.7982 48.536 46.0942 49.272 45.2302 49.848C44.3982 50.392 43.4702 50.792 42.4462 51.048C41.4222 51.336 40.3662 51.48 39.2783 51.48C37.4222 51.48 35.7902 51.144 34.3822 50.472C32.9742 49.8 31.8862 48.76 31.1182 47.352C30.3502 45.944 29.9662 44.12 29.9662 41.88V24.792H37.1182V40.104C37.1182 41.96 37.4542 43.368 38.1262 44.328C38.7982 45.288 39.8702 45.768 41.3422 45.768C42.8142 45.768 43.9502 45.432 44.7502 44.76C45.5822 44.088 46.1582 43.112 46.4783 41.832C46.8302 40.552 47.0062 38.984 47.0062 37.128V24.792H54.1583ZM77.2571 24.312C77.6091 24.312 78.0251 24.328 78.5051 24.36C78.9851 24.392 79.3691 24.44 79.6571 24.504L79.1291 31.224C78.9051 31.16 78.5691 31.112 78.1211 31.08C77.7051 31.016 77.3371 30.984 77.0171 30.984C76.0891 30.984 75.1931 31.112 74.3291 31.368C73.4651 31.592 72.6811 31.96 71.9771 32.472C71.3051 32.984 70.7611 33.672 70.3451 34.536C69.9611 35.368 69.7691 36.408 69.7691 37.656V51H62.6171V24.792H68.0411L69.0971 29.208H69.4331C69.9451 28.312 70.5851 27.496 71.3531 26.76C72.1211 26.024 73.0011 25.432 73.9931 24.984C75.0171 24.536 76.1051 24.312 77.2571 24.312ZM100.254 24.312C103.07 24.312 105.326 25.08 107.022 26.616C108.718 28.12 109.566 30.552 109.566 33.912V51H102.414V35.688C102.414 33.8 102.078 32.392 101.406 31.464C100.734 30.504 99.662 30.024 98.19 30.024C96.014 30.024 94.526 30.776 93.726 32.28C92.926 33.752 92.526 35.88 92.526 38.664V51H85.374V24.792H90.846L91.806 28.152H92.19C92.766 27.256 93.47 26.536 94.302 25.992C95.134 25.416 96.062 25 97.086 24.744C98.11 24.456 99.166 24.312 100.254 24.312ZM129.342 51L136.59 16.728H145.038C149.166 16.728 152.398 17.848 154.734 20.088C157.07 22.328 158.238 25.704 158.238 30.216C158.238 32.648 157.95 34.936 157.374 37.08C156.83 39.192 156.014 41.112 154.926 42.84C153.838 44.536 152.494 45.992 150.894 47.208C149.294 48.424 147.438 49.368 145.326 50.04C143.246 50.68 140.942 51 138.414 51H129.342ZM138.654 46.632C140.51 46.632 142.19 46.36 143.694 45.816C145.23 45.24 146.558 44.456 147.678 43.464C148.83 42.472 149.79 41.304 150.558 39.96C151.326 38.584 151.902 37.08 152.286 35.448C152.702 33.816 152.91 32.088 152.91 30.264C152.91 27.032 152.142 24.696 150.606 23.256C149.07 21.816 147.022 21.096 144.462 21.096H140.766L135.342 46.632H138.654ZM174.938 51.48C172.954 51.48 171.242 51.096 169.802 50.328C168.362 49.56 167.258 48.44 166.49 46.968C165.722 45.496 165.338 43.72 165.338 41.64C165.338 39.56 165.626 37.512 166.202 35.496C166.81 33.48 167.69 31.656 168.842 30.024C169.994 28.392 171.402 27.096 173.066 26.136C174.73 25.144 176.618 24.648 178.73 24.648C181.29 24.648 183.226 25.224 184.538 26.376C185.85 27.496 186.506 29.032 186.506 30.984C186.506 32.264 186.202 33.464 185.594 34.584C185.018 35.704 184.106 36.68 182.858 37.512C181.642 38.312 180.09 38.936 178.202 39.384C176.314 39.832 174.058 40.056 171.434 40.056H170.522C170.49 40.344 170.458 40.616 170.426 40.872C170.426 41.128 170.426 41.368 170.426 41.592C170.426 43.384 170.89 44.808 171.818 45.864C172.746 46.92 174.106 47.448 175.898 47.448C177.178 47.448 178.362 47.272 179.45 46.92C180.538 46.568 181.77 46.072 183.146 45.432V49.56C181.866 50.136 180.602 50.6 179.354 50.952C178.138 51.304 176.666 51.48 174.938 51.48ZM171.722 36.264C173.61 36.264 175.29 36.088 176.762 35.736C178.266 35.384 179.434 34.84 180.266 34.104C181.13 33.368 181.562 32.424 181.562 31.272C181.562 30.472 181.306 29.832 180.794 29.352C180.282 28.872 179.498 28.632 178.442 28.632C177.45 28.632 176.474 28.936 175.514 29.544C174.554 30.152 173.69 31.032 172.922 32.184C172.186 33.304 171.61 34.664 171.194 36.264H171.722ZM198.92 51.48C197.32 51.48 195.928 51.336 194.744 51.048C193.56 50.76 192.488 50.376 191.528 49.896V45.432C192.456 45.976 193.544 46.456 194.792 46.872C196.072 47.288 197.368 47.496 198.68 47.496C199.8 47.496 200.76 47.352 201.56 47.064C202.36 46.744 202.968 46.312 203.384 45.768C203.832 45.224 204.056 44.568 204.056 43.8C204.056 43.224 203.928 42.728 203.672 42.312C203.448 41.896 203.032 41.464 202.424 41.016C201.816 40.536 200.952 39.992 199.832 39.384C198.68 38.712 197.704 38.04 196.904 37.368C196.104 36.696 195.496 35.96 195.08 35.16C194.664 34.328 194.456 33.368 194.456 32.28C194.456 30.68 194.824 29.32 195.56 28.2C196.296 27.08 197.352 26.216 198.728 25.608C200.104 24.968 201.72 24.648 203.576 24.648C205.112 24.648 206.552 24.824 207.896 25.176C209.272 25.528 210.488 25.992 211.544 26.568L209.912 30.408C209.048 29.992 208.104 29.608 207.08 29.256C206.056 28.904 204.904 28.728 203.624 28.728C202.408 28.728 201.416 29.016 200.648 29.592C199.912 30.136 199.544 30.888 199.544 31.848C199.544 32.36 199.656 32.824 199.88 33.24C200.104 33.624 200.504 34.04 201.08 34.488C201.688 34.904 202.52 35.416 203.576 36.024C204.664 36.632 205.624 37.256 206.456 37.896C207.32 38.536 207.992 39.288 208.472 40.152C208.952 40.984 209.192 42.008 209.192 43.224C209.192 45.016 208.776 46.536 207.944 47.784C207.112 49 205.912 49.928 204.344 50.568C202.808 51.176 201 51.48 198.92 51.48ZM217.08 51L222.6 25.128H227.64L222.12 51H217.08ZM226.344 21.144C225.576 21.144 224.936 20.952 224.424 20.568C223.944 20.152 223.704 19.528 223.704 18.696C223.704 18.056 223.832 17.496 224.088 17.016C224.344 16.504 224.712 16.104 225.192 15.816C225.672 15.496 226.248 15.336 226.92 15.336C227.72 15.336 228.344 15.544 228.792 15.96C229.272 16.344 229.512 16.92 229.512 17.688C229.512 18.744 229.208 19.592 228.6 20.232C227.992 20.84 227.24 21.144 226.344 21.144ZM241.154 62.52C239.49 62.52 238.002 62.36 236.69 62.04C235.378 61.752 234.21 61.368 233.186 60.888V56.328C233.858 56.68 234.61 57 235.442 57.288C236.274 57.608 237.17 57.864 238.13 58.056C239.09 58.248 240.034 58.344 240.962 58.344C242.85 58.344 244.386 57.896 245.57 57C246.786 56.104 247.634 54.632 248.114 52.584L248.498 51.048C248.626 50.6 248.754 50.104 248.882 49.56C249.01 49.016 249.154 48.488 249.314 47.976C249.474 47.432 249.602 46.984 249.698 46.632H249.506C248.802 47.496 248.05 48.296 247.25 49.032C246.482 49.768 245.618 50.36 244.658 50.808C243.698 51.256 242.626 51.48 241.442 51.48C240.098 51.48 238.898 51.16 237.842 50.52C236.786 49.848 235.954 48.84 235.346 47.496C234.738 46.152 234.434 44.488 234.434 42.504C234.434 40.68 234.61 38.904 234.962 37.176C235.346 35.416 235.89 33.784 236.594 32.28C237.33 30.776 238.194 29.464 239.186 28.344C240.21 27.192 241.362 26.296 242.642 25.656C243.922 24.984 245.33 24.648 246.866 24.648C248.018 24.648 249.01 24.84 249.842 25.224C250.674 25.608 251.378 26.12 251.954 26.76C252.53 27.4 253.026 28.12 253.442 28.92H253.634L255.122 25.128H259.01L253.202 52.248C252.658 54.744 251.842 56.744 250.754 58.248C249.666 59.752 248.322 60.84 246.722 61.512C245.122 62.184 243.266 62.52 241.154 62.52ZM243.458 47.304C244.162 47.304 244.85 47.128 245.522 46.776C246.194 46.424 246.834 45.928 247.442 45.288C248.082 44.616 248.658 43.848 249.17 42.984C249.714 42.12 250.178 41.192 250.562 40.2C250.946 39.176 251.234 38.12 251.426 37.032C251.65 35.912 251.762 34.808 251.762 33.72C251.762 32.248 251.426 31.064 250.754 30.168C250.082 29.272 248.994 28.824 247.49 28.824C246.562 28.824 245.698 29.08 244.898 29.592C244.098 30.104 243.362 30.808 242.69 31.704C242.05 32.6 241.49 33.624 241.01 34.776C240.562 35.928 240.21 37.16 239.954 38.472C239.698 39.784 239.57 41.112 239.57 42.456C239.57 44.088 239.906 45.304 240.578 46.104C241.25 46.904 242.21 47.304 243.458 47.304ZM264.578 51L270.146 25.032H274.37L273.842 29.832H273.938C274.546 28.936 275.25 28.088 276.05 27.288C276.882 26.488 277.826 25.832 278.882 25.32C279.97 24.808 281.17 24.552 282.482 24.552C283.89 24.552 285.09 24.824 286.082 25.368C287.106 25.912 287.874 26.696 288.386 27.72C288.898 28.712 289.154 29.912 289.154 31.32C289.154 32.024 289.09 32.76 288.962 33.528C288.866 34.264 288.754 34.952 288.626 35.592L285.314 51H280.034L283.442 35.064C283.57 34.392 283.666 33.816 283.73 33.336C283.826 32.856 283.874 32.392 283.874 31.944C283.874 30.952 283.618 30.2 283.106 29.688C282.594 29.176 281.826 28.92 280.802 28.92C279.746 28.92 278.658 29.32 277.538 30.12C276.418 30.92 275.394 32.136 274.466 33.768C273.538 35.368 272.786 37.432 272.21 39.96L269.858 51H264.578ZM10.896 89.792V116H3.744V89.792H10.896ZM7.344 79.52C8.4 79.52 9.312 79.776 10.08 80.288C10.848 80.768 11.232 81.68 11.232 83.024C11.232 84.336 10.848 85.248 10.08 85.76C9.312 86.272 8.4 86.528 7.344 86.528C6.256 86.528 5.328 86.272 4.56 85.76C3.824 85.248 3.456 84.336 3.456 83.024C3.456 81.68 3.824 80.768 4.56 80.288C5.328 79.776 6.256 79.52 7.344 79.52ZM34.209 89.312C37.025 89.312 39.281 90.08 40.977 91.616C42.673 93.12 43.521 95.552 43.521 98.912V116H36.369V100.688C36.369 98.8 36.033 97.392 35.361 96.464C34.689 95.504 33.617 95.024 32.145 95.024C29.969 95.024 28.481 95.776 27.681 97.28C26.881 98.752 26.481 100.88 26.481 103.664V116H19.329V89.792H24.801L25.761 93.152H26.145C26.721 92.256 27.425 91.536 28.257 90.992C29.089 90.416 30.017 90 31.041 89.744C32.065 89.456 33.121 89.312 34.209 89.312ZM62.8759 110.768C63.6759 110.768 64.4439 110.688 65.1799 110.528C65.9159 110.368 66.6519 110.176 67.3879 109.952V115.28C66.6199 115.6 65.6599 115.872 64.5079 116.096C63.3879 116.352 62.1559 116.48 60.8119 116.48C59.2439 116.48 57.8359 116.224 56.5879 115.712C55.3719 115.2 54.3959 114.32 53.6599 113.072C52.9559 111.792 52.6039 110.032 52.6039 107.792V95.168H49.1959V92.144L53.1319 89.744L55.1959 84.224H59.7559V89.792H67.0999V95.168H59.7559V107.792C59.7559 108.784 60.0439 109.536 60.6199 110.048C61.1959 110.528 61.9479 110.768 62.8759 110.768ZM131.492 116H124.244V87.776H114.932V81.728H140.804V87.776H131.492V116ZM153.898 89.312C156.33 89.312 158.41 89.776 160.138 90.704C161.898 91.632 163.258 92.976 164.218 94.736C165.178 96.496 165.658 98.656 165.658 101.216V104.672H148.762C148.826 106.688 149.418 108.272 150.538 109.424C151.69 110.576 153.274 111.152 155.29 111.152C156.986 111.152 158.522 110.992 159.898 110.672C161.274 110.32 162.698 109.792 164.17 109.088V114.608C162.89 115.248 161.53 115.712 160.09 116C158.682 116.32 156.97 116.48 154.954 116.48C152.33 116.48 150.01 116 147.994 115.04C145.978 114.048 144.394 112.56 143.242 110.576C142.09 108.592 141.514 106.096 141.514 103.088C141.514 100.016 142.026 97.472 143.05 95.456C144.106 93.408 145.562 91.872 147.418 90.848C149.274 89.824 151.434 89.312 153.898 89.312ZM153.946 94.4C152.57 94.4 151.418 94.848 150.49 95.744C149.594 96.64 149.066 98.032 148.906 99.92H158.938C158.938 98.864 158.746 97.92 158.362 97.088C158.01 96.256 157.466 95.6 156.73 95.12C155.994 94.64 155.066 94.4 153.946 94.4ZM183.073 116.48C180.481 116.48 178.273 116.016 176.449 115.088C174.625 114.128 173.233 112.656 172.273 110.672C171.313 108.688 170.833 106.144 170.833 103.04C170.833 99.84 171.377 97.232 172.465 95.216C173.553 93.2 175.057 91.712 176.977 90.752C178.929 89.792 181.169 89.312 183.697 89.312C185.489 89.312 187.041 89.488 188.353 89.84C189.697 90.192 190.865 90.608 191.857 91.088L189.745 96.608C188.625 96.16 187.569 95.792 186.577 95.504C185.617 95.216 184.657 95.072 183.697 95.072C182.449 95.072 181.409 95.376 180.577 95.984C179.745 96.56 179.121 97.44 178.705 98.624C178.321 99.776 178.129 101.232 178.129 102.992C178.129 104.72 178.337 106.16 178.753 107.312C179.201 108.432 179.841 109.28 180.673 109.856C181.505 110.4 182.513 110.672 183.697 110.672C185.201 110.672 186.529 110.48 187.681 110.096C188.833 109.68 189.953 109.12 191.041 108.416V114.512C189.953 115.216 188.801 115.712 187.585 116C186.401 116.32 184.897 116.48 183.073 116.48ZM205.185 86.96C205.185 88.24 205.137 89.472 205.041 90.656C204.977 91.84 204.913 92.672 204.849 93.152H205.233C205.809 92.256 206.481 91.536 207.249 90.992C208.017 90.416 208.865 90 209.793 89.744C210.753 89.456 211.761 89.312 212.817 89.312C214.705 89.312 216.353 89.648 217.761 90.32C219.169 90.992 220.257 92.032 221.025 93.44C221.825 94.848 222.225 96.672 222.225 98.912V116H215.073V100.688C215.073 98.8 214.721 97.392 214.017 96.464C213.345 95.504 212.289 95.024 210.849 95.024C209.409 95.024 208.273 95.36 207.441 96.032C206.641 96.704 206.065 97.68 205.713 98.96C205.361 100.24 205.185 101.808 205.185 103.664V116H198.033V79.52H205.185V86.96ZM229.532 112.64C229.532 111.168 229.932 110.144 230.732 109.568C231.532 108.96 232.508 108.656 233.66 108.656C234.78 108.656 235.74 108.96 236.54 109.568C237.34 110.144 237.74 111.168 237.74 112.64C237.74 114.048 237.34 115.072 236.54 115.712C235.74 116.32 234.78 116.624 233.66 116.624C232.508 116.624 231.532 116.32 230.732 115.712C229.932 115.072 229.532 114.048 229.532 112.64Z" fill="#262626"/>
<path d="M97.4164 102.848C97.4164 105.024 97.1124 106.96 96.5044 108.656C95.9284 110.352 95.0804 111.792 93.9604 112.976C92.8724 114.128 91.5444 115.008 89.9764 115.616C88.4084 116.192 86.6324 116.48 84.6484 116.48C82.8244 116.48 81.1284 116.192 79.5604 115.616C78.0244 115.008 76.6964 114.128 75.5764 112.976C74.4564 111.792 73.5764 110.352 72.9364 108.656C72.3284 106.96 72.0244 105.024 72.0244 102.848C72.0244 99.936 72.5364 97.488 73.5604 95.504C74.5844 93.488 76.0564 91.952 77.9764 90.896C79.8964 89.84 82.1684 89.312 84.7924 89.312C87.2564 89.312 89.4324 89.84 91.3204 90.896C93.2084 91.952 94.6964 93.488 95.7844 95.504C96.8724 97.488 97.4164 99.936 97.4164 102.848ZM79.3204 102.848C79.3204 104.576 79.4964 106.032 79.8484 107.216C80.2324 108.368 80.8244 109.248 81.6244 109.856C82.4244 110.432 83.4644 110.72 84.7444 110.72C86.0244 110.72 87.0484 110.432 87.8164 109.856C88.6164 109.248 89.1924 108.368 89.5444 107.216C89.9284 106.032 90.1204 104.576 90.1204 102.848C90.1204 101.12 89.9284 99.68 89.5444 98.528C89.1924 97.376 88.6164 96.512 87.8164 95.936C87.0164 95.36 85.9764 95.072 84.6964 95.072C82.8084 95.072 81.4324 95.728 80.5684 97.04C79.7364 98.32 79.3204 100.256 79.3204 102.848Z" fill="#0057BE"/>
<path d="M4.872 154.48C5.544 154.552 6.264 154.6 7.032 154.6C8.424 154.6 14.016 154.6 15.36 154.6C16.032 154.6 16.896 154.552 17.592 154.48V156.472C16.872 156.424 16.032 156.376 15.36 156.376C14.016 156.376 8.424 156.376 7.08 156.376C6.264 156.376 5.496 156.424 4.872 156.472V154.48ZM2.016 160.504C2.664 160.576 3.36 160.624 4.104 160.624C5.496 160.624 18.528 160.624 19.8 160.624C20.304 160.624 21.096 160.576 21.696 160.504V162.496C21.168 162.448 20.4 162.424 19.8 162.424C18.528 162.424 5.496 162.424 4.104 162.424C3.384 162.424 2.664 162.448 2.016 162.496V160.504ZM13.32 161.464C13.32 164.488 12.936 166.984 11.88 169C10.992 170.608 9.192 172.336 7.152 173.368L5.376 172.072C7.224 171.28 8.952 169.912 9.912 168.376C11.112 166.48 11.28 164.128 11.304 161.488L13.32 161.464ZM18.84 152.512C19.44 153.376 20.304 154.84 20.784 155.8L19.488 156.376C19.032 155.416 18.216 153.976 17.568 153.064L18.84 152.512ZM21.456 151.552C22.104 152.44 23.016 153.928 23.472 154.816L22.2 155.392C21.672 154.36 20.88 152.992 20.208 152.104L21.456 151.552ZM46.704 153.712C47.16 154.576 47.784 156.064 48.12 157.024L46.92 157.432C46.584 156.424 46.032 154.984 45.552 154.072L46.704 153.712ZM49.104 152.968C49.56 153.856 50.184 155.32 50.544 156.28L49.344 156.688C48.96 155.608 48.432 154.24 47.928 153.328L49.104 152.968ZM44.424 161.416C44.424 167.8 43.056 171.088 37.584 173.536L35.952 172.024C40.32 170.344 42.504 168.28 42.504 161.56V155.728C42.504 154.792 42.432 154 42.384 153.76H44.544C44.52 154 44.424 154.792 44.424 155.728V161.416ZM35.784 153.928C35.76 154.144 35.664 154.816 35.664 155.656V164.464C35.664 165.328 35.736 166.384 35.76 166.624H33.648C33.672 166.384 33.744 165.376 33.744 164.464V155.656C33.744 155.152 33.72 154.456 33.648 153.928H35.784ZM28.752 158.584C28.968 158.608 30.144 158.728 31.176 158.728H47.064C48.12 158.728 48.936 158.656 49.272 158.608V160.648C49.008 160.6 48.12 160.576 47.064 160.576H31.176C30.12 160.576 29.04 160.624 28.752 160.648V158.584ZM57.264 163.336C61.416 162.232 65.064 160.528 67.728 158.872C70.248 157.288 72.648 155.224 74.304 153.208L75.912 154.72C73.848 156.856 71.328 158.872 68.52 160.624C65.88 162.256 62.064 164.008 58.2 165.208L57.264 163.336ZM67.344 159.856L69.408 159.232V170.2C69.408 171.088 69.456 172.288 69.576 172.744H67.2C67.272 172.288 67.344 171.088 67.344 170.2V159.856ZM88.248 154.432C89.928 155.56 93.024 158.056 94.344 159.376L92.856 160.912C91.632 159.664 88.656 157.072 86.856 155.896L88.248 154.432ZM86.184 170.512C90.36 169.888 93.48 168.424 95.76 167.008C99.48 164.68 102.384 161.128 103.776 158.152L104.928 160.216C103.296 163.192 100.512 166.456 96.888 168.736C94.464 170.248 91.44 171.736 87.432 172.48L86.184 170.512ZM121.44 153.04C121.224 153.976 120.96 155.296 120.336 156.904C119.736 158.368 118.848 159.976 117.888 161.224C118.824 160.672 120.192 160.336 121.248 160.336C123.096 160.336 124.536 161.44 124.536 163.384C124.536 164.632 124.584 167.392 124.608 168.88H122.76C122.856 167.608 122.88 165.136 122.856 163.888C122.832 162.496 121.872 161.848 120.624 161.848C119.088 161.848 117.576 162.616 116.472 163.6C115.776 164.272 115.104 165.136 114.312 166.12L112.656 164.896C116.112 161.584 117.72 158.8 118.536 156.76C119.064 155.44 119.4 154 119.472 152.872L121.44 153.04ZM113.208 155.632C114.504 155.8 116.16 155.872 117.264 155.872C120.504 155.872 124.656 155.68 128.04 155.08V156.856C124.68 157.36 120.216 157.576 117.168 157.576C116.136 157.576 114.552 157.528 113.208 157.432V155.632ZM131.544 161.416C130.944 161.608 130.08 161.944 129.432 162.184C127.728 162.856 125.448 163.768 123.12 164.968C120.744 166.216 119.064 167.512 119.064 169.168C119.064 171.04 120.912 171.328 123.384 171.328C125.256 171.328 127.848 171.112 129.96 170.728L129.888 172.672C128.064 172.888 125.4 173.08 123.312 173.08C119.904 173.08 117.144 172.336 117.144 169.432C117.144 166.504 120.12 164.704 122.976 163.24C125.256 162.064 127.2 161.32 128.784 160.576C129.504 160.24 130.104 159.976 130.776 159.64L131.544 161.416ZM143.136 154.264C143.832 154.336 144.528 154.384 145.32 154.384C146.712 154.384 153.696 154.384 155.04 154.384C155.712 154.384 156.576 154.336 157.272 154.264V156.256C156.552 156.208 155.712 156.16 155.04 156.16C153.696 156.16 146.712 156.16 145.344 156.16C144.552 156.16 143.76 156.208 143.136 156.256V154.264ZM140.28 160.288C140.928 160.36 141.624 160.384 142.368 160.384C143.76 160.384 156.792 160.384 158.064 160.384C158.568 160.384 159.36 160.36 159.96 160.288V162.256C159.408 162.232 158.664 162.208 158.064 162.208C156.792 162.208 143.76 162.208 142.368 162.208C141.648 162.208 140.928 162.232 140.28 162.28V160.288ZM151.584 161.248C151.584 164.272 151.2 166.768 150.12 168.784C149.256 170.392 147.432 172.096 145.416 173.152L143.64 171.856C145.488 171.064 147.216 169.696 148.152 168.16C149.352 166.264 149.544 163.912 149.568 161.272L151.584 161.248ZM186.504 157C186.312 157.336 186.072 157.888 185.952 158.272C185.304 160.696 183.84 163.936 181.704 166.552C179.52 169.216 176.64 171.4 172.152 173.08L170.4 171.496C174.816 170.2 177.792 168.04 180 165.472C181.848 163.288 183.336 160.168 183.816 157.984H174.936L175.704 156.256C176.664 156.256 182.592 156.256 183.336 156.256C183.984 156.256 184.536 156.184 184.92 156.04L186.504 157ZM178.464 153.376C178.08 154 177.648 154.816 177.408 155.248C175.992 157.912 173.496 161.344 169.632 163.888L167.952 162.664C172.104 160.192 174.456 156.688 175.512 154.552C175.752 154.12 176.112 153.256 176.256 152.632L178.464 153.376ZM210.994 154.744C210.73 155.392 210.442 156.256 210.226 156.856C209.314 159.448 207.874 162.976 205.834 165.568C203.674 168.328 200.242 170.992 196.786 172.408L195.106 170.68C198.706 169.432 202.018 167.008 204.202 164.296C206.41 161.512 208.042 157.576 208.714 154.144L210.994 154.744ZM222.874 155.56C223.81 155.608 224.434 155.608 225.01 155.608C226.282 155.608 236.722 155.608 237.898 155.608C238.402 155.608 239.266 155.608 240.01 155.584C239.962 156.16 239.962 156.832 239.962 157.432C239.962 158.56 239.962 168.352 239.962 169.264C239.962 170.032 239.986 171.904 240.01 172.168H237.922C237.946 171.904 237.97 170.536 237.97 169.528C237.97 168.64 237.97 157.504 237.97 157.504H224.866C224.866 157.504 224.866 168.544 224.866 169.528C224.866 170.32 224.89 171.856 224.89 172.168H222.85C222.85 171.856 222.898 170.104 222.898 169.264C222.898 168.28 222.898 158.368 222.898 157.432C222.898 156.88 222.898 156.16 222.874 155.56ZM238.762 168.928V170.8H223.906V168.928H238.762ZM264.154 154.096C264.754 154.984 265.834 156.688 266.386 157.84L265.018 158.464C264.418 157.192 263.602 155.752 262.81 154.672L264.154 154.096ZM267.274 152.944C267.922 153.784 269.002 155.512 269.578 156.616L268.21 157.24C267.586 155.992 266.746 154.6 265.954 153.544L267.274 152.944ZM253.882 153.736C255.298 154.528 258.058 156.376 259.114 157.144L257.962 158.776C256.834 157.912 254.218 156.16 252.802 155.368L253.882 153.736ZM250.282 170.896C252.922 170.44 255.898 169.504 258.346 168.112C262.33 165.832 265.474 162.712 267.418 159.328L268.594 161.296C266.506 164.512 263.194 167.632 259.354 169.864C256.93 171.28 253.618 172.408 251.41 172.864L250.282 170.896ZM250.282 159.136C251.698 159.904 254.506 161.632 255.538 162.376L254.434 164.056C253.258 163.216 250.666 161.536 249.202 160.792L250.282 159.136ZM276.994 161.608C277.738 161.68 278.986 161.752 280.354 161.752C282.106 161.752 291.73 161.752 293.506 161.752C294.706 161.752 295.546 161.656 296.098 161.608V163.96C295.594 163.936 294.586 163.864 293.53 163.864C291.706 163.864 282.13 163.864 280.354 163.864C279.034 163.864 277.762 163.912 276.994 163.96V161.608ZM313.09 155.8C315.706 156.256 320.578 156.16 322.954 155.8V157.744C320.386 158.032 315.73 158.032 313.114 157.744L313.09 155.8ZM314.026 165.592C313.81 166.456 313.69 167.128 313.69 167.776C313.69 168.88 314.458 169.96 317.746 169.96C319.882 169.96 321.754 169.768 323.674 169.312L323.722 171.328C322.234 171.64 320.218 171.832 317.722 171.832C313.714 171.832 311.914 170.488 311.914 168.232C311.914 167.44 312.034 166.576 312.298 165.424L314.026 165.592ZM308.53 153.952C308.386 154.36 308.194 155.128 308.098 155.56C307.642 157.792 306.898 162.064 306.898 164.776C306.898 165.928 306.97 166.936 307.114 168.112C307.522 167.032 308.074 165.592 308.482 164.608L309.49 165.4C308.89 167.104 308.002 169.624 307.786 170.776C307.714 171.112 307.666 171.568 307.666 171.856C307.69 172.096 307.714 172.432 307.738 172.696L306.034 172.816C305.554 171.112 305.146 168.352 305.146 165.088C305.146 161.56 305.938 157.456 306.226 155.464C306.298 154.912 306.37 154.312 306.394 153.784L308.53 153.952ZM334.426 166.168C336.442 166.168 338.074 167.8 338.074 169.816C338.074 171.832 336.442 173.464 334.426 173.464C332.41 173.464 330.754 171.832 330.754 169.816C330.754 167.8 332.41 166.168 334.426 166.168ZM334.426 172.24C335.77 172.24 336.85 171.16 336.85 169.816C336.85 168.472 335.77 167.392 334.426 167.392C333.082 167.392 331.978 168.472 331.978 169.816C331.978 171.16 333.082 172.24 334.426 172.24Z" fill="#707070"/>
</svg>
